# File created by Blade
# Date/Time:  Thu Jan 22 19:09:08 2015
#---------------------------------------------------------
:version 1.10
:name HOM
:units
  mass 1.0
  length 1.000000
  angle deg
:documentation
     Acclaim Skeleton File
:root
   axis xyz
   order TX TY TZ RX RY RZ
   position 0.000000 0.000000 0.000000
   orientation 0 0 0
:bonedata
   begin
      id 1
      name RightUpLeg_dum
      direction -1.000000 0.000000 0.000000
      length 4.478084
      axis 0.0 0.0 0.0 xyz
   end
   begin
      id 2
      name LeftUpLeg_dum
      direction 1.000000 0.000000 0.000000
      length 4.478084
      axis 0.0 0.0 0.0 xyz
   end
   begin
      id 3
      name Spine_dum
      direction 0.000000 1.000000 0.000000
      length 6.068208
      axis 0.0 0.0 0.0 xyz
   end
   begin
      id 4
      name RightUpLeg
      direction 0.000000 -1.000000 0.000000
      length 16.405774
      axis 0.0 0.0 0.0 xyz
      dof rx ry rz
   end
   begin
      id 5
      name RightLeg
      direction 0.000000 -1.000000 0.000000
      length 14.644143
      axis 0.0 0.0 0.0 xyz
      dof rx ry rz
   end
   begin
      id 6
      name RightFoot
      direction 0.000000 -0.258819 0.965926
      length 5.806150
      axis 15.0 0.0 0.0 xyz
      dof rx ry rz
   end
   begin
      id 7
      name RightToeBase
      direction 0.000000 0.000000 1.000000
      length 2.952750
      axis 0.0 0.0 0.0 xyz
      dof rx ry rz
   end
   begin
      id 8
      name LeftUpLeg
      direction 0.000000 -1.000000 0.000000
      length 16.405774
      axis 0.0 0.0 0.0 xyz
      dof rx ry rz
   end
   begin
      id 9
      name LeftLeg
      direction 0.000000 -1.000000 0.000000
      length 14.644143
      axis 0.0 0.0 0.0 xyz
      dof rx ry rz
   end
   begin
      id 10
      name LeftFoot
      direction 0.000000 -0.258819 0.965926
      length 5.806150
      axis 15.0 0.0 0.0 xyz
      dof rx ry rz
   end
   begin
      id 11
      name LeftToeBase
      direction 0.000000 0.000000 1.000000
      length 2.952750
      axis 0.0 0.0 0.0 xyz
      dof rx ry rz
   end
   begin
      id 12
      name Spine
      direction 0.000000 1.000000 0.000000
      length 0.000000
      axis 0.0 0.0 0.0 xyz
      dof rx ry rz
   end
   begin
      id 13
      name Spine_dum1
      direction 0.000000 1.000000 0.000000
      length 10.013923
      axis 0.0 0.0 0.0 xyz
   end
   begin
      id 14
      name Spine_dum2
      direction 0.000000 1.000000 0.000000
      length 10.013923
      axis 0.0 0.0 0.0 xyz
   end
   begin
      id 15
      name Spine_dum3
      direction 0.000000 1.000000 0.000000
      length 15.777476
      axis 0.0 0.0 0.0 xyz
   end
   begin
      id 16
      name RightShoulder
      direction -1.000000 0.000000 0.000000
      length 7.190220
      axis 0.0 0.0 90.0 xyz
      dof rx ry rz
   end
   begin
      id 17
      name RightArm
      direction -1.000000 0.000000 0.000000
      length 10.177469
      axis 0.0 0.0 90.0 xyz
      dof rx ry rz
   end
   begin
      id 18
      name RightForeArm
      direction -1.000000 0.000000 0.000000
      length 8.392114
      axis 0.0 0.0 90.0 xyz
      dof ry rz rx
   end
   begin
      id 19
      name RightHand
      direction -1.000000 0.000000 0.000000
      length 0.000000
      axis 0.0 0.0 90.0 xyz
      dof rx ry rz
   end
   begin
      id 20
      name RightHand_dum1
      direction -1.000000 0.000000 0.000000
      length 3.937000
      axis 0.0 0.0 90.0 xyz
   end
   begin
      id 21
      name RightHand_dum2
      direction 0.000000 0.000000 0.000000
      length 0.000000
      axis 0.0 0.0 90.0 xyz
   end
   begin
      id 22
      name RightHandThumb1
      direction 0.000000 0.000000 1.000000
      length 3.937000
      axis 0.0 0.0 90.0 xyz
      dof rx rz ry
   end
   begin
      id 23
      name LeftShoulder
      direction 1.000000 0.000000 0.000000
      length 7.190220
      axis 0.0 0.0 -90.0 xyz
      dof rx ry rz
   end
   begin
      id 24
      name LeftArm
      direction 1.000000 0.000000 0.000000
      length 10.177469
      axis 0.0 0.0 -90.0 xyz
      dof rx ry rz
   end
   begin
      id 25
      name LeftForeArm
      direction 1.000000 0.000000 0.000000
      length 8.392114
      axis 0.0 0.0 -90.0 xyz
      dof ry rz rx
   end
   begin
      id 26
      name LeftHand
      direction 1.000000 0.000000 0.000000
      length 0.000000
      axis 0.0 0.0 -90.0 xyz
      dof rx ry rz
   end
   begin
      id 27
      name LeftHand_dum1
      direction 1.000000 0.000000 0.000000
      length 3.937000
      axis 0.0 0.0 -90.0 xyz
   end
   begin
      id 28
      name LeftHand_dum2
      direction 0.000000 0.000000 0.000000
      length 0.000000
      axis 0.0 0.0 -90.0 xyz
   end
   begin
      id 29
      name LeftHandThumb1
      direction 0.000000 0.000000 1.000000
      length 3.937000
      axis 0.0 0.0 -90.0 xyz
      dof rx rz ry
   end
   begin
      id 30
      name Head
      direction 0.000000 1.000000 0.000000
      length 4.527550
      axis 0.0 0.0 0.0 xyz
      dof rx ry rz
   end
:hierarchy
   begin
      root RightUpLeg_dum LeftUpLeg_dum Spine_dum
      RightUpLeg_dum RightUpLeg
      LeftUpLeg_dum LeftUpLeg
      Spine_dum Spine
      RightUpLeg RightLeg
      RightLeg RightFoot
      RightFoot RightToeBase
      LeftUpLeg LeftLeg
      LeftLeg LeftFoot
      LeftFoot LeftToeBase
      Spine Spine_dum1 Spine_dum2 Spine_dum3
      Spine_dum1 RightShoulder
      Spine_dum2 LeftShoulder
      Spine_dum3 Head
      RightShoulder RightArm
      RightArm RightForeArm
      RightForeArm RightHand
      RightHand RightHand_dum1 RightHand_dum2
      RightHand_dum2 RightHandThumb1
      LeftShoulder LeftArm
      LeftArm LeftForeArm
      LeftForeArm LeftHand
      LeftHand LeftHand_dum1 LeftHand_dum2
      LeftHand_dum2 LeftHandThumb1
   end

# File created by Blade
# Date/Time:  Thu Jan 22 19:08:58 2015
# Frame Rate: 120.000 fps
#------------------------------------------------------
:FULLY-SPECIFIED
:DEGREES
1030
root -2.674949 32.122502 -2.088404 112.579657 -80.982275 -98.224180
RightUpLeg -29.593163 33.606642 -0.092281
RightLeg 8.093366 -0.000000 -0.000000
RightFoot 8.827645 29.193906 22.878675
RightToeBase 9.216352 -0.000000 -0.000000
LeftUpLeg 3.431503 27.024910 2.026349
LeftLeg 9.225167 -0.000000 -0.000000
LeftFoot -29.883368 23.355470 -17.019798
LeftToeBase 6.091278 -0.000000 -0.000000
Spine -6.261419 -41.638491 3.899241
RightShoulder -23.171817 -28.191213 -20.622480
RightArm -1.744847 28.324093 61.820285
RightForeArm 10.382978 -0.000000 7.086508
RightHand 5.371600 -0.000000 -14.521959
RightHandThumb1 -24.326973 -0.000000 -32.862282
LeftShoulder -3.733782 -12.855931 32.013158
LeftArm 51.214552 -9.200092 -42.249659
LeftForeArm 23.697386 -0.000000 4.305498
LeftHand -6.021571 0.000000 -5.592394
LeftHandThumb1 -26.253704 0.000000 33.147579
Head 6.380181 -22.910982 8.612555
1031
root -2.677338 32.124736 -2.081014 112.884250 -80.964672 -98.527577
RightUpLeg -29.575797 33.571425 -0.075232
RightLeg 8.076543 -0.000000 -0.000000
RightFoot 8.884401 29.292045 22.784873
RightToeBase 9.347236 -0.000000 -0.000000
LeftUpLeg 3.469072 27.080199 2.031064
LeftLeg 9.179186 -0.000000 -0.000000
LeftFoot -29.856696 23.284465 -17.099590
LeftToeBase 6.046324 -0.000000 -0.000000
Spine -6.272694 -41.620731 3.893206
RightShoulder -23.172188 -28.187428 -20.623393
RightArm -1.781251 28.394679 61.828258
RightForeArm 10.394518 -0.000000 7.088302
RightHand 5.261301 -0.000000 -14.477624
RightHandThumb1 -24.326973 -0.000000 -32.862282
LeftShoulder -3.717015 -12.880243 32.007633
LeftArm 51.199431 -9.165274 -42.265184
LeftForeArm 23.696516 -0.000000 4.315413
LeftHand -6.006640 -0.000000 -5.602768
LeftHandThumb1 -26.253704 0.000000 33.147579
Head 6.378370 -22.822322 8.599826
1032
root -2.680438 32.126164 -2.073218 113.064223 -80.969899 -98.711012
RightUpLeg -29.525305 33.501408 -0.047156
RightLeg 8.038940 -0.000000 -0.000000
RightFoot 8.851578 29.405507 22.401529
RightToeBase 8.996009 -0.000000 -0.000000
LeftUpLeg 3.505156 27.112489 2.020057
LeftLeg 9.144981 -0.000000 -0.000000
LeftFoot -29.800176 23.225849 -17.116603
LeftToeBase 5.948498 -0.000000 -0.000000
Spine -6.282830 -41.622902 3.868954
RightShoulder -23.166240 -28.182499 -20.639228
RightArm -1.834090 28.446992 61.840635
RightForeArm 10.371151 -0.000000 7.097898
RightHand 5.242150 -0.000000 -14.417272
RightHandThumb1 -24.326973 -0.000000 -32.862282
LeftShoulder -3.712637 -12.829793 31.994811
LeftArm 51.255342 -9.183514 -42.311284
LeftForeArm 23.664507 -0.000000 4.381917
LeftHand -6.081928 -0.000000 -5.572353
LeftHandThumb1 -26.253704 0.000000 33.147579
Head 6.395889 -22.742617 8.577266
1033
root -2.682529 32.128003 -2.065393 113.234716 -80.956195 -98.880125
RightUpLeg -29.498746 33.442719 -0.023764
RightLeg 8.012838 -0.000000 -0.000000
RightFoot 8.900806 29.524282 22.191632
RightToeBase 8.876151 -0.000000 -0.000000
LeftUpLeg 3.541204 27.207343 2.032299
LeftLeg 9.098199 -0.000000 -0.000000
LeftFoot -29.767996 23.104314 -17.157024
LeftToeBase 5.937073 -0.000000 -0.000000
Spine -6.293893 -41.600411 3.875297
RightShoulder -23.193109 -28.184494 -20.638389
RightArm -1.851166 28.447701 61.851289
RightForeArm 10.418630 -0.000000 7.082390
RightHand 5.270648 -0.000000 -14.245409
RightHandThumb1 -24.326973 -0.000000 -32.862282
LeftShoulder -3.699777 -12.798482 31.968094
LeftArm 51.299589 -9.205454 -42.362447
LeftForeArm 23.724660 0.000000 4.408221
LeftHand -6.076878 -0.000000 -5.545416
LeftHandThumb1 -26.253704 0.000000 33.147579
Head 6.380469 -22.659673 8.561548
1034
root -2.688498 32.130398 -2.059845 113.237280 -80.943819 -98.893885
RightUpLeg -29.441758 33.417505 0.001966
RightLeg 7.956442 -0.000000 -0.000000
RightFoot 8.919287 29.561675 22.045896
RightToeBase 8.937306 -0.000000 -0.000000
LeftUpLeg 3.598676 27.338296 2.076208
LeftLeg 9.056140 -0.000000 -0.000000
LeftFoot -29.689652 22.944421 -17.129965
LeftToeBase 5.849566 -0.000000 -0.000000
Spine -6.263497 -41.633306 3.875458
RightShoulder -23.252527 -28.154683 -20.596963
RightArm -1.823049 28.378385 61.827789
RightForeArm 10.474564 -0.000000 7.055253
RightHand 5.276003 -0.000000 -14.306370
RightHandThumb1 -24.326973 -0.000000 -32.862282
LeftShoulder -3.763577 -12.791541 31.950228
LeftArm 51.381599 -9.173933 -42.371343
LeftForeArm 23.560372 -0.000000 4.393232
LeftHand -6.101080 0.000000 -5.602778
LeftHandThumb1 -26.253704 0.000000 33.147579
Head 6.277653 -22.556520 8.591005
1035
root -2.691696 32.131585 -2.051830 113.214944 -80.948066 -98.869439
RightUpLeg -29.399487 33.352839 0.024827
RightLeg 7.921159 -0.000000 -0.000000
RightFoot 8.918268 29.598522 21.925317
RightToeBase 9.019346 -0.000000 -0.000000
LeftUpLeg 3.626807 27.390828 2.079079
LeftLeg 9.017988 -0.000000 -0.000000
LeftFoot -29.630344 22.875910 -17.109804
LeftToeBase 5.784296 -0.000000 -0.000000
Spine -6.265082 -41.662752 3.865183
RightShoulder -23.263106 -28.168325 -20.582783
RightArm -1.801799 28.427242 61.832554
RightForeArm 10.370038 0.000000 7.028089
RightHand 5.187346 0.000000 -14.353896
RightHandThumb1 -24.326973 -0.000000 -32.862282
LeftShoulder -3.774324 -12.685761 31.951457
LeftArm 51.482638 -9.218531 -42.425154
LeftForeArm 23.512566 -0.000000 4.384841
LeftHand -6.074614 -0.000000 -5.504717
LeftHandThumb1 -26.253704 0.000000 33.147579
Head 6.242630 -22.437782 8.616544
1036
root -2.694507 32.132648 -2.044263 113.157280 -80.946045 -98.818388
RightUpLeg -29.367228 33.310957 0.041926
RightLeg 7.906945 -0.000000 -0.000000
RightFoot 8.878802 29.643413 21.707384
RightToeBase 8.901328 -0.000000 -0.000000
LeftUpLeg 3.666631 27.445625 2.094261
LeftLeg 8.975933 -0.000000 -0.000000
LeftFoot -29.609342 22.774137 -17.146377
LeftToeBase 5.742586 -0.000000 -0.000000
Spine -6.287417 -41.658294 3.844677
RightShoulder -23.208546 -28.219176 -20.597128
RightArm -1.854480 28.448381 61.840738
RightForeArm 10.357168 0.000000 7.023405
RightHand 5.214623 -0.000000 -14.340017
RightHandThumb1 -24.326973 -0.000000 -32.862282
LeftShoulder -3.700867 -12.703053 31.962221
LeftArm 51.456272 -9.192378 -42.494758
LeftForeArm 23.596615 0.000000 4.394911
LeftHand -6.000859 -0.000000 -5.438865
LeftHandThumb1 -26.253704 0.000000 33.147579
Head 6.335278 -22.354157 8.599302
